<svg xmlns="http://www.w3.org/2000/svg" width="250" height="250" viewBox="0 0 250 250" fill="none">
<rect width="250" height="250" fill="#FEFFFE"/>
<path d="M 236.77,151.31 C 224.89,145.38 193.12,140.63 180.09,138.81 L 196.71,141.21 L 180.18,130.09 L 205.61,115.16 L 211.71,145.53 L 220.29,146.93 L 211.23,98.76 L 205.29,102.11 L 204.46,104.72 L 204.98,108.63 L 174.23,127.23 L 150.03,112.01 L 152.91,109.61 L 195.83,105.46 C 208.82,104.18 220.42,89.71 227.12,79.94 C 234.94,68.48 234.79,54.37 229.91,42.81 L 221.11,57.96 L 211.81,58.29 L 208.93,68.81 L 197.91,66.61 L 193.97,77.21 L 183.79,69.23 L 175.98,79.84 C 168.29,79.84 165.08,75.82 158.96,68.91 L 169.41,53.76 L 163.71,41.28 L 175.58,39.71 L 174.11,27.01 L 185.81,29.11 L 187.71,19.98 L 204.98,13.77 C 195.83,7.56 181.71,6.28 172.71,8.49 C 163.71,10.7 150.12,19.02 143.66,25.23 C 134.12,34.46 132.91,50.94 122.46,76.09 L 118.52,84.41 L 136.21,106.5 L 129.31,140.98 L 127.68,134.77 L 113.22,134.5 L 94.71,100.04 L 79.71,64.79 C 59.39,69.01 41.71,73.03 27.92,80.71 C 21.81,84.17 16.11,88.76 13.07,90.7 V 159.53 L 10,160.61 V 165.36 L 13.31,165.73 V 199.82 L 10,200.72 V 205.84 L 13.31,206.08 V 237.51 C 47.38,240.72 69.68,242.26 101.08,242.26 H 118.76 C 152.82,242.26 187.62,241.81 236.77,237.51 V 205.11 L 239.71,205.47 V 200.72 L 236.77,199.82 V 151.31 Z" fill="#6E0D0D"/>
<path d="M 136.21,106.4 L 142.76,115.16 L 149.22,112.11 L 168.92,129.62 L 155.12,136.49 L 165.81,136.12 L 173.86,133.42 L 184.64,139.8 L 197.22,141.74 L 173.86,127.09 L 203.81,107.71 L 202.89,102.02 L 199.22,104.72 L 155.37,109.1 L 149.76,110.86 L 137.09,104.09 L 136.21,106.4 Z" fill="#520B0B"/>
<path d="M 13.07,90.7 C 24.18,81.85 35.11,77.71 46.47,73.36 L 79.71,64.79 L 94.71,95.41 L 91.91,96.12 L 99.18,107.44 L 113.22,134.41 L 127.14,134.77 L 130.61,143.18 L 131.71,148.21 L 13.07,159.53 V 90.7 Z" fill="#D83434"/>
<path d="M 13.07,119.09 V 90.7 C 22.21,83.26 33.08,78.18 46.47,73.36 L 46.22,111.13 L 13.07,119.09 Z" fill="#D32A2A"/>
<path d="M 46.92,73.1 C 57.19,69.01 67.64,67.12 79.71,64.79 L 81.98,69.46 L 82.15,96.91 L 46.75,106.14 L 46.92,73.1 Z" fill="#F06460"/>
<path d="M 12.82,126.19 L 10,125.31 V 120.49 C 36.73,105.73 60.84,97.96 102.46,95.22 L 103.47,100.04 L 99.61,107.26 C 66.72,109.29 38.62,114.68 12.82,126.19 Z" fill="#641414"/>
<path d="M 13.07,165.73 C 43.73,153.44 77.14,143.77 133.18,145.11 L 150.95,143.77 L 154.34,135.45 C 176.91,136.03 214.75,143.01 236.52,151.03 V 198.48 L 159.97,190.42 L 145.85,184.49 L 130.12,148.81 C 90.16,147.06 49.28,152.09 13.07,165.73 Z" fill="#B32424"/>
<path d="M 13.31,205.81 C 54.69,198.94 111.83,197.49 120.67,198.11 L 157.75,199.21 L 175.19,241.43 C 157.92,242.17 145.25,242.26 120.03,242.26 H 101.33 C 73.93,242.26 52.12,240.16 13.31,237.51 V 205.81 Z" fill="#D83434"/>
<path d="M 157.75,199.21 L 236.77,205.11 V 237.51 C 220.95,239.36 212.99,239.98 175.19,241.43 L 157.75,199.21 Z" fill="#A92424"/>
<path d="M 138.66,31.82 C 145.29,20.12 163.46,9.24 174.73,8.12 C 186.97,6.88 194.68,8.12 204.98,13.77 C 187.22,14.13 170.03,18.66 159.13,29.27 C 149.13,39.12 147.23,41.74 140.78,59.71 L 123.18,91.41 L 118.52,84.41 C 126.04,70.95 132.12,42.81 138.66,31.82 Z" fill="#F08282"/>
<path d="M 146.88,33.37 C 158.96,20.25 173.91,11.12 196.22,12.11 L 204.98,13.77 C 190.95,17.91 177.91,20.02 167.38,35.71 C 160.07,46.79 158.25,54.72 158.51,66.76 L 160.16,73.1 C 166.11,78.75 170.21,86.1 168.66,93.93 C 167.46,100.22 157.75,109.07 152.66,111.72 L 143.74,115.16 L 123.18,90.07 L 141.28,45.02 C 143.02,40.27 144.75,35.92 146.88,33.37 Z" fill="#DB2E2E"/>
<path d="M 230.16,42.81 C 224.46,56.11 214.83,74.08 196.88,78.93 C 187.71,81.67 178.08,81.93 173.51,80.11 C 178.08,80.67 176.79,79.94 183.33,69.76 L 193.37,77.91 C 196.88,76.92 197.91,71.08 197.91,66.61 L 208.68,69.92 C 211.23,68.25 211.31,62.32 211.23,58.29 L 220.86,57.93 L 230.16,42.81 C 233.83,51.12 235.11,62.32 227.29,76.56 C 221.03,87.76 209.76,100.13 195.83,102.02 C 184.04,103.67 172.88,104.81 164.45,102.48 C 170.23,99.39 171.12,87.11 164.66,77.01 C 173.34,83.03 187.05,81.09 193.72,78.93 C 207.76,74.26 218.77,65.03 230.16,42.81 Z" fill="#B72424"/>
<path d="M 145.85,81.93 C 151.12,81.93 152.91,86.19 152.91,88.76 C 152.91,93.12 149.85,95.68 146.27,95.68 C 141.28,95.68 138.66,92.66 138.66,88.76 C 138.66,84.73 141.71,81.93 145.85,81.93 Z" fill="#992020"/>
<path d="M 13.07,200.27 C 51.41,193.97 102.12,192.11 120.33,192.66 L 159.72,193.41 L 239.71,200.32 V 205.47 C 216.18,202.64 170.81,197.97 118.88,197.97 C 86.99,197.97 48.64,198.94 12.82,205.81 L 10,205.54 L 10.17,200.72 L 13.07,200.27 Z" fill="#581111"/>
<path d="M 22.95,132.12 L 30.85,122.99 L 39.61,127.91 V 144.83 L 22.95,149.31 V 132.12 Z" fill="#591414"/>
<path d="M 54.43,122.53 L 63.65,113.86 L 73.72,120.63 V 137.92 L 54.43,141.65 V 122.53 Z" fill="#591414"/>
<path d="M 22.95,175.23 L 31.27,166.56 L 39.61,172.86 V 189.78 L 22.95,192.52 V 175.23 Z" fill="#591414"/>
<path d="M 53.98,169.02 L 63.21,159.44 L 73.72,167.76 V 186.61 L 53.98,188.82 V 169.02 Z" fill="#591414"/>
<path d="M 89.39,164.66 L 100.66,154.61 L 112.08,163.84 V 185.06 L 89.39,185.71 V 164.66 Z" fill="#591414"/>
<path d="M 150.03,166.01 L 160.48,158.23 L 170.03,167.46 V 186.97 L 149.95,184.4 L 150.03,166.01 Z" fill="#591414"/>
<path d="M 182.32,169.02 L 191.24,162.72 L 200.46,172.21 V 189.33 L 182.32,187.76 V 169.02 Z" fill="#591414"/>
<path d="M 211.72,173.61 L 220.48,168.21 L 227.71,176.53 V 192.7 L 211.72,190.9 V 173.61 Z" fill="#591414"/>
<path d="M 22.95,217.58 L 31.62,209.71 L 39.95,216.92 V 239.36 L 22.95,238.13 V 217.58 Z" fill="#4C0F0F"/>
<path d="M 53.98,215.11 L 63.52,206.45 L 73.97,215.11 V 241.43 L 53.98,240.16 V 215.11 Z" fill="#591414"/>
<path d="M 89.56,213.76 L 100.66,204.63 L 111.66,213.76 V 242.26 H 89.56 V 213.76 Z" fill="#591414"/>
<path d="M 125.96,213.31 L 137.66,204.17 L 149.22,213.76 V 242.08 L 125.96,242.26 V 213.31 Z" fill="#591414"/>
<path d="M 182.32,215.11 L 190.73,207.76 L 200.21,217.35 V 239.79 L 182.32,240.72 V 215.11 Z" fill="#591414"/>
<path d="M 211.56,218.03 L 220.23,210.19 L 227.71,218.5 V 237.91 L 211.56,239.36 V 218.03 Z" fill="#4C0F0F"/>
<path d="M 159.55,44.15 L 163.71,41.28 L 169.41,53.76 L 158.32,59.35 C 158.16,55.09 158.51,50.06 159.55,44.15 Z" fill="#8A1A1A"/>
<path d="M 174.11,27.01 L 185.81,29.11 L 187.36,21.16 L 181.97,21.72 L 174.11,27.01 Z" fill="#8A1A1A"/>
<path d="M 46.22,111.13 L 82.64,103.17 V 144.11 L 46.22,150.41 V 111.13 Z" fill="#F06460" fill-opacity="0.56"/>
<path d="M 13.07,125.01 L 46.22,111.13 V 150.41 L 13.07,158.37 V 125.01 Z" fill="#F06460" fill-opacity="0.36"/>
<path d="M 13.07,165.01 L 46.22,155.69 V 194.63 L 13.07,198.48 V 165.01 Z" fill="#F06460" fill-opacity="0.5"/>
<path d="M 46.22,199.91 L 82.64,197.97 V 241.9 L 73.97,241.43 L 53.98,239.98 L 46.22,239.36 V 199.91 Z" fill="#F06460" fill-opacity="0.36"/>
<path d="M 82.64,199.12 L 118.88,197.97 V 242.26 L 111.66,242.26 L 89.56,242.08 H 82.64 V 199.12 Z" fill="#F06460" fill-opacity="0.5"/>
<path d="M 82.64,150.05 L 118.88,148.51 V 190.15 L 82.64,192.01 V 150.05 Z" fill="#F06460" fill-opacity="0.5"/>
<path d="M 118.88,148.51 L 130.12,148.81 L 145.85,184.49 L 159.63,186.05 V 191.61 L 118.88,190.15 V 148.51 Z" fill="#F03A3A" fill-opacity="0.76"/>
</svg>